<svg id="图层_1" xmlns="http://www.w3.org/2000/svg" viewBox="0 0 512 512"><style>.st0,.st1{opacity:.8;fill:#fff}.st1{opacity:.9}.st2{opacity:.7}.st2,.st3{fill:#fff}.st4,.st5{opacity:.6;fill:#fff}.st5{opacity:.5}.st6,.st7{opacity:.3;fill:#fff}.st7{opacity:.4}</style><path class="st0" d="M117.6 224.4c8.8 8.8 13.1 19.3 13.1 31.6s-4.4 22.9-13.1 31.6c-8.8 8.8-19.3 13.2-31.6 13.2s-22.8-4.4-31.6-13.2c-8.8-8.8-13.1-19.3-13.1-31.6s4.4-22.9 13.1-31.6c8.8-8.8 19.3-13.2 31.6-13.2s22.9 4.4 31.6 13.2z"/><path class="st1" d="M174.5 95.7c9.6 9.6 14.4 21.2 14.4 34.9 0 13.6-4.8 25.2-14.4 34.8-9.6 9.6-21.2 14.4-34.8 14.4-13.6 0-25.2-4.8-34.8-14.4-9.6-9.6-14.4-21.2-14.4-34.8 0-13.6 4.8-25.2 14.4-34.9 9.6-9.6 21.2-14.4 34.8-14.4 13.6 0 25.2 4.8 34.8 14.4z"/><path class="st2" d="M168.1 352.9c7.9 7.8 11.9 17.3 11.9 28.6s-4 20.7-11.9 28.6-17.4 11.7-28.4 11.7c-11.2 0-20.7-4-28.5-11.8-7.8-7.8-11.8-17.3-11.8-28.6 0-11.2 3.9-20.7 11.8-28.6 7.8-7.8 17.3-11.8 28.5-11.8 11 .1 20.5 4.1 28.4 11.9z"/><path class="st3" d="M303 38.7c10.4 10.4 15.7 23.2 15.7 38.1s-5.2 27.6-15.7 38.1c-10.4 10.5-23.1 15.7-38 15.7-14.9 0-27.6-5.2-38-15.7-10.4-10.4-15.7-23.1-15.7-38.1s5.2-27.6 15.7-38.1S250 23 264.9 23c14.9 0 27.6 5.3 38.1 15.7z"/><path class="st4" d="M290.3 409.9c7 7 10.5 15.4 10.5 25.3s-3.5 18.3-10.5 25.3S274.9 471 265 471s-18.3-3.5-25.3-10.5-10.5-15.4-10.5-25.3 3.5-18.3 10.5-25.3 15.4-10.5 25.3-10.5c9.8 0 18.3 3.5 25.3 10.5z"/><path class="st5" d="M412.3 359.3c6.2 6.2 9.2 13.5 9.2 22.1 0 8.6-3.1 16-9.2 22.1-6.1 6.2-13.5 9.2-22.1 9.2s-15.9-3.1-22.1-9.2c-6.2-6.2-9.2-13.5-9.2-22.1 0-8.6 3.1-15.9 9.2-22.1 6.1-6.2 13.5-9.2 22.1-9.2s15.9 3.1 22.1 9.2z"/><path class="st6" d="M406 114.7c4.3 4.4 6.5 9.7 6.5 15.8 0 6.2-2.2 11.4-6.5 15.8-4.4 4.4-9.7 6.6-15.8 6.6-6.2 0-11.4-2.2-15.8-6.6-4.4-4.4-6.5-9.7-6.5-15.8 0-6.2 2.2-11.4 6.5-15.8 4.4-4.4 9.7-6.6 15.8-6.6 6.1 0 11.4 2.3 15.8 6.6z"/><path class="st7" d="M462.9 237c5.2 5.3 7.8 11.6 7.8 19s-2.6 13.8-7.8 19c-5.2 5.3-11.6 7.8-19 7.8s-13.8-2.6-19-7.8c-5.2-5.2-7.8-11.6-7.8-19s2.6-13.8 7.8-19c5.2-5.2 11.6-7.8 19-7.8s13.8 2.6 19 7.8z"/></svg>