<svg width="119" height="23" viewBox="0 0 119 23" xmlns="http://www.w3.org/2000/svg"><title>Fill 1</title><path d="M23.072 1.813v4.769h3.136v2.531h-3.136v8.261c0 1.475.361 1.845 1.808 1.845.453 0 .875-.032 1.328-.121v3.413c-.725.124-1.658.152-2.505.152-2.624 0-4.915-.616-4.915-3.782V9.113h-5.965l-.001-2.04c-.152-2.643-1.993-3.319-4.254-3.319-1.509 0-3.259.644-3.259 2.49 0 1.688 1.027 1.907 6.426 3.323 1.568.4 6.396 1.412 6.396 6.393 0 4.029-3.107 7.04-8.96 7.04C4.405 23-.06 20.6 0 15.19h4.584c0 2.922 2.232 4.06 4.767 4.06 1.659 0 4.193-.49 4.193-2.737 0-2.369-3.227-2.77-6.394-3.627C3.952 12.025.724 10.764.724 6.644.724 2.154 4.887 0 8.779 0c4.346 0 8.354 1.87 8.614 6.582h1.395V1.813h4.284zm84.654 11.012h6.965c-.392-2.216-1.324-3.384-3.406-3.384-2.716 0-3.5 2.152-3.56 3.384zm11.25 2.764h-11.25c.119 2.77 1.447 4.03 3.828 4.03 1.719 0 3.107-1.076 3.38-2.058h3.772c-1.21 3.747-3.773 5.35-7.3 5.35-3.803 0-6.492-2.063-7.51-5.275-.148 3.976-3.632 5.275-7.114 5.275-3.42 0-6.759-1.232-7.272-4.918v.95c0 1.446.152 2.89.544 3.536h-4.346a6.657 6.657 0 0 1-.3-1.536c-1.355 1.445-3.348 1.968-5.25 1.968-2.704 0-4.903-1.264-5.259-3.973-1.187 2.586-3.627 3.973-6.806 3.973-4.005 0-6.892-2.45-7.665-6.12v5.688h-4.284v-6.89H45.148c.12 2.77 1.448 4.03 3.833 4.03 1.718 0 3.106-1.076 3.376-2.058h3.772c-1.208 3.747-3.772 5.35-7.3 5.35-4.562 0-7.512-2.962-7.917-7.322H29.787c.119 2.77 1.448 4.03 3.831 4.03 1.718 0 3.107-1.076 3.379-2.058h3.771c-1.207 3.747-3.771 5.35-7.302 5.35-4.916 0-7.963-3.445-7.963-8.367 0-4.764 3.227-8.394 7.963-8.394 4.43 0 6.949 3.166 7.486 7.053.547-4.087 3.596-7.053 7.876-7.053 4.07 0 6.524 2.671 7.316 6.119V.526h4.284v12.036c.743-3.797 3.473-6.412 7.757-6.412 3.398 0 6.537 1.68 7.211 5.13.53-4.192 3.99-5.13 7.27-5.13 3.105 0 6.844.708 6.844 4.523v6.641h4.011c.031 1.905 1.6 2.675 3.291 2.675 1.233 0 2.804-.491 2.804-2.03 0-1.323-1.78-1.784-4.857-2.459-2.474-.553-4.946-1.445-4.946-4.245 0-4.058 3.439-5.105 6.785-5.105 3.413 0 6.547 1.169 6.88 5.073h-4.073c-.119-1.689-1.39-2.151-2.923-2.151-.968 0-2.386.188-2.386 1.477 0 1.569 2.412 1.78 4.858 2.367 1.878.438 3.725 1.066 4.53 2.605a9.965 9.965 0 0 1-.042-.977c0-4.764 3.227-8.394 7.963-8.394 5.31 0 7.872 4.55 7.571 9.44zm-43.462-3.41h-4.192c-.27-1.785-1.389-2.738-3.167-2.738-2.744 0-3.653 2.831-3.653 5.167 0 2.274.878 5.011 3.56 5.011 1.992 0 3.137-1.291 3.411-3.227h3.642c.731-2.154 2.89-2.776 5.044-3.077 2.625-.399 5.068-.308 5.068-2.092 0-1.872-1.267-2.151-2.777-2.151-1.627 0-2.684 1.382-2.833 3.103l-4.103.004zm-30.366.646h6.97c-.393-2.216-1.327-3.384-3.41-3.384-2.716 0-3.5 2.152-3.56 3.384zm-15.361 0h6.968c-.392-2.216-1.327-3.384-3.41-3.384-2.715 0-3.498 2.152-3.558 3.384zm55.44 3.504V14.7c-.724.647-2.232.679-3.56.921-1.328.277-2.532.739-2.532 2.339 0 1.627 1.233 2.029 2.621 2.029 3.35 0 3.471-2.707 3.471-3.66z" fill="#FFF" fill-rule="evenodd"/></svg>