<?xml version="1.0" encoding="UTF-8"?>
<svg width="28px" height="25px" viewBox="0 0 28 25" version="1.1" xmlns="http://www.w3.org/2000/svg" xmlns:xlink="http://www.w3.org/1999/xlink">
    <!-- Generator: Sketch 50.2 (55047) - http://www.bohemiancoding.com/sketch -->
    <title>评论</title>
    <desc>Created with Sketch.</desc>
    <defs>
        <filter x="-1.6%" y="-12.0%" width="103.2%" height="124.0%" filterUnits="objectBoundingBox" id="filter-1">
            <feOffset dx="0" dy="0" in="SourceAlpha" result="shadowOffsetOuter1"></feOffset>
            <feGaussianBlur stdDeviation="2" in="shadowOffsetOuter1" result="shadowBlurOuter1"></feGaussianBlur>
            <feColorMatrix values="0 0 0 0 0   0 0 0 0 0   0 0 0 0 0  0 0 0 0.0994112319 0" type="matrix" in="shadowBlurOuter1" result="shadowMatrixOuter1"></feColorMatrix>
            <feMerge>
                <feMergeNode in="shadowMatrixOuter1"></feMergeNode>
                <feMergeNode in="SourceGraphic"></feMergeNode>
            </feMerge>
        </filter>
    </defs>
    <g id="Page-1" stroke="none" stroke-width="1" fill="none" fill-rule="evenodd">
        <g id="首页" transform="translate(-130.000000, -934.000000)" fill="#FD7933" fill-rule="nonzero">
            <g id="导航" filter="url(#filter-1)" transform="translate(0.000000, 922.000000)">
                <g id="Group-6" transform="translate(134.000000, 12.000000)">
                    <g id="评论" transform="translate(0.000000, 4.000000)">
                        <path d="M7.30674847,13 C6.95782209,13 6.66871166,12.6740238 6.66871166,12.286927 C6.66871166,11.8896435 6.95782209,11.573854 7.30674847,11.573854 L15.3619632,11.573854 C15.7108896,11.573854 16,11.8998302 16,12.286927 C16,12.6842105 15.7108896,13 15.3619632,13 L7.30674847,13 Z M7.30674847,8.85398981 C6.95782209,8.85398981 6.66871166,8.52801358 6.66871166,8.14091681 C6.66871166,7.74363328 6.95782209,7.4278438 7.30674847,7.4278438 L15.3619632,7.4278438 C15.7108896,7.4278438 16,7.75382003 16,8.14091681 C16,8.32427844 15.940184,8.50764007 15.8205521,8.64006791 C15.7009202,8.78268251 15.541411,8.86417657 15.3619632,8.86417657 L7.30674847,8.86417657 L7.30674847,8.85398981 Z M3,7.06112054 C3.00996933,7.05093379 3.02990798,7.04074703 3.0398773,7.03056027 C3.05981595,7.02037351 3.06978528,7.01018676 3.08972393,7 L3.25920245,7.36672326 C3.25920245,7.36672326 3.24923313,7.36672326 3.24923313,7.37691002 L3.2392638,7.38709677 L3,7.06112054 Z" id="Shape"></path>
                        <path d="M11.5047941,17 C11.3705584,17 11.2459109,16.9633268 11.1404399,16.880812 L8.5036661,15.0104781 L4.09306261,15.0104781 C3.48900169,15.0104781 3,14.5428946 3,13.9561231 L3,4.05435494 C3,3.4767518 3.48900169,3 4.09306261,3 L18.8973491,3 C19.50141,3 20,3.4675835 20,4.05435494 L20,13.9652914 C20,14.5428946 19.5109983,15.0196464 18.8973491,15.0196464 L14.1223914,15.0196464 L11.9075014,16.8624754 C11.8020305,16.9449902 11.6582064,17 11.5047941,17 Z M8.70501974,13.8277669 C8.8392555,13.8277669 8.96390299,13.8644401 9.06937394,13.9469548 L11.4664411,15.6522593 L13.4799774,13.9744597 C13.5950367,13.8827767 13.7388607,13.8277669 13.8826847,13.8277669 L18.7535251,13.8277669 L18.7535251,4.1827112 L4.22729836,4.1827112 L4.22729836,13.8369352 L8.70501974,13.8369352 L8.70501974,13.8277669 Z" id="Shape"></path>
                        <path d="M0.982939633,11 C0.440944882,11 0,10.5428571 0,9.97142857 L0,1.02857143 C0,0.466666667 0.440944882,0 0.982939633,0 L13.0170604,0 C13.5590551,0 14,0.457142857 14,1.02857143 L14,3.4 L12.824147,3.4 L12.824147,1.21904762 L1.16666667,1.22857143 L1.17585302,9.78095238 L2.95800525,9.77142857 L2.95800525,11 L0.982939633,11 Z" id="Shape"></path>
                    </g>
                </g>
            </g>
        </g>
    </g>
</svg>