<?xml version="1.0" encoding="UTF-8"?>
<svg width="14px" height="14px" viewBox="0 0 14 14" version="1.1" xmlns="http://www.w3.org/2000/svg" xmlns:xlink="http://www.w3.org/1999/xlink">
    <!-- Generator: Sketch 50.2 (55047) - http://www.bohemiancoding.com/sketch -->
    <title>Shape</title>
    <desc>Created with Sketch.</desc>
    <defs></defs>
    <g id="Page-1" stroke="none" stroke-width="1" fill="none" fill-rule="evenodd">
        <g id="首页" transform="translate(-320.000000, -471.000000)" fill="#FD7933" fill-rule="nonzero" stroke="#FD7933" stroke-width="0.5">
            <g id="Group-5" transform="translate(0.000000, 408.000000)">
                <g id="Group" transform="translate(15.000000, 60.000000)">
                    <path d="M310.183497,15.3242425 L314.780642,15.2592213 C314.895912,15.1891134 315.279655,14.9384063 315.471314,14.5992465 C315.887671,13.8626964 316.490545,12.7044043 316.998158,11.3691819 C317.365823,10.4019485 317.42299,9.66804752 317.168086,9.18783859 C317.009641,8.88932327 316.724767,8.68899887 316.321391,8.59247451 C316.188958,8.56078478 315.943103,8.54471604 315.59064,8.54471604 C315.077261,8.54471604 314.481452,8.5800001 314.210321,8.60083225 L313.803786,8.6320245 L313.847036,8.22807987 C314.026014,6.55647118 314.121799,5.33895352 313.721843,4.89563303 C313.586477,4.74564158 313.375708,4.67578238 313.058494,4.67578238 C312.802217,4.67578238 312.612792,4.74118909 312.479398,4.87575853 C312.15145,5.20659788 312.160499,5.93253909 312.166503,6.41289727 C312.167913,6.52333874 312.169374,6.63754864 312.166153,6.73307803 C312.132864,7.69883143 311.530514,8.46407387 310.424197,8.94606132 C309.915261,9.16770291 309.406588,9.27872892 309.148675,9.32516906 L309.140849,15.9981842 L306.810497,15.9981842 C306.363584,15.9981842 306,15.6358914 306,15.1905436 L306,9.50488518 C306,9.05953744 306.363584,8.69721978 306.810497,8.69721978 L308.782295,8.69721978 C308.857124,8.68836456 309.521883,8.60324503 310.160705,8.32326099 C311.017685,7.94774757 311.464348,7.40495514 311.488276,6.70996988 C311.490934,6.63300909 311.489799,6.53762896 311.488475,6.42717506 C311.480961,5.82855247 311.469715,4.93268314 311.996849,4.40087266 C312.260529,4.13488036 312.617722,4 313.058482,4 C313.574794,4 313.956752,4.14519073 314.226148,4.44386773 C314.512132,4.76077752 314.654725,5.24278984 314.674871,5.96078374 C314.690136,6.5047204 314.641682,7.12534421 314.564219,7.889828 C314.830932,7.88603469 315.213151,7.8691078 315.576211,7.8691078 C315.992069,7.8691078 316.296053,7.89138265 316.479748,7.93533538 C317.072425,8.07721784 317.517765,8.40106753 317.76764,8.87186159 C318.117594,9.53120211 318.072072,10.4519456 317.632299,11.6085339 C317.109783,12.9830576 316.490083,14.1738728 316.062242,14.9307948 C315.720801,15.5348773 315.057365,15.8812879 315.029306,15.8957398 L314.958396,15.9324914 L310.193083,16 L310.183497,15.3242425 Z M306.693359,9.28189087 C306.65248,9.28189087 306.619218,9.34153239 306.619218,9.41483314 L306.619218,15.3485946 C306.619218,15.4218953 306.65248,15.4815369 306.693359,15.4815369 L308.531982,15.4815369 L308.531982,9.28189087 L306.693359,9.28189087 Z" id="Shape"></path>
                </g>
            </g>
        </g>
    </g>
</svg>