<?xml version="1.0" encoding="UTF-8"?>
<svg width="14px" height="14px" viewBox="0 0 14 14" version="1.1" xmlns="http://www.w3.org/2000/svg" xmlns:xlink="http://www.w3.org/1999/xlink">
    <!-- Generator: Sketch 50.2 (55047) - http://www.bohemiancoding.com/sketch -->
    <title>Shape</title>
    <desc>Created with Sketch.</desc>
    <defs></defs>
    <g id="Page-1" stroke="none" stroke-width="1" fill="none" fill-rule="evenodd">
        <g id="首页" transform="translate(-312.000000, -422.000000)" fill="#999999" fill-rule="nonzero" stroke="#999999" stroke-width="0.5">
            <g id="Group-5" transform="translate(0.000000, 408.000000)">
                <path d="M317.183497,26.3242425 L321.780642,26.2592213 C321.895912,26.1891134 322.279655,25.9384063 322.471314,25.5992465 C322.887671,24.8626964 323.490545,23.7044043 323.998158,22.3691819 C324.365823,21.4019485 324.42299,20.6680475 324.168086,20.1878386 C324.009641,19.8893233 323.724767,19.6889989 323.321391,19.5924745 C323.188958,19.5607848 322.943103,19.544716 322.59064,19.544716 C322.077261,19.544716 321.481452,19.5800001 321.210321,19.6008322 L320.803786,19.6320245 L320.847036,19.2280799 C321.026014,17.5564712 321.121799,16.3389535 320.721843,15.895633 C320.586477,15.7456416 320.375708,15.6757824 320.058494,15.6757824 C319.802217,15.6757824 319.612792,15.7411891 319.479398,15.8757585 C319.15145,16.2065979 319.160499,16.9325391 319.166503,17.4128973 C319.167913,17.5233387 319.169374,17.6375486 319.166153,17.733078 C319.132864,18.6988314 318.530514,19.4640739 317.424197,19.9460613 C316.915261,20.1677029 316.406588,20.2787289 316.148675,20.3251691 L316.140849,26.9981842 L313.810497,26.9981842 C313.363584,26.9981842 313,26.6358914 313,26.1905436 L313,20.5048852 C313,20.0595374 313.363584,19.6972198 313.810497,19.6972198 L315.782295,19.6972198 C315.857124,19.6883646 316.521883,19.603245 317.160705,19.323261 C318.017685,18.9477476 318.464348,18.4049551 318.488276,17.7099699 C318.490934,17.6330091 318.489799,17.537629 318.488475,17.4271751 C318.480961,16.8285525 318.469715,15.9326831 318.996849,15.4008727 C319.260529,15.1348804 319.617722,15 320.058482,15 C320.574794,15 320.956752,15.1451907 321.226148,15.4438677 C321.512132,15.7607775 321.654725,16.2427898 321.674871,16.9607837 C321.690136,17.5047204 321.641682,18.1253442 321.564219,18.889828 C321.830932,18.8860347 322.213151,18.8691078 322.576211,18.8691078 C322.992069,18.8691078 323.296053,18.8913826 323.479748,18.9353354 C324.072425,19.0772178 324.517765,19.4010675 324.76764,19.8718616 C325.117594,20.5312021 325.072072,21.4519456 324.632299,22.6085339 C324.109783,23.9830576 323.490083,25.1738728 323.062242,25.9307948 C322.720801,26.5348773 322.057365,26.8812879 322.029306,26.8957398 L321.958396,26.9324914 L317.193083,27 L317.183497,26.3242425 Z M313.693359,20.2818909 C313.65248,20.2818909 313.619218,20.3415324 313.619218,20.4148331 L313.619218,26.3485946 C313.619218,26.4218953 313.65248,26.4815369 313.693359,26.4815369 L315.531982,26.4815369 L315.531982,20.2818909 L313.693359,20.2818909 Z" id="Shape"></path>
            </g>
        </g>
    </g>
</svg>